<svg width="100" height="100" viewBox="0 0 100 100" xmlns="http://www.w3.org/2000/svg">
  <defs>
    <linearGradient id="healthGrad" x1="0%" y1="0%" x2="100%" y2="100%">
      <stop offset="0%" style="stop-color:#00BCD4;stop-opacity:1" />
      <stop offset="100%" style="stop-color:#00E5FF;stop-opacity:1" />
    </linearGradient>
    <filter id="healthGlow">
      <feGaussianBlur stdDeviation="2" result="coloredBlur"/>
      <feMerge>
        <feMergeNode in="coloredBlur"/>
        <feMergeNode in="SourceGraphic"/>
      </feMerge>
    </filter>
  </defs>
  
  <!-- Heart Shape with Neural Network -->
  <path d="M 50,30 C 50,25 45,20 40,20 C 30,20 25,28 25,35 C 25,50 50,70 50,70 C 50,70 75,50 75,35 C 75,28 70,20 60,20 C 55,20 50,25 50,30 Z" 
        fill="none" 
        stroke="url(#healthGrad)" 
        stroke-width="3"
        filter="url(#healthGlow)">
    <animate attributeName="stroke-dasharray" values="0,300;300,300" dur="3s" fill="freeze"/>
  </path>
  
  <!-- EKG Line -->
  <polyline points="20,50 30,50 35,40 40,60 45,50 80,50" 
            fill="none" 
            stroke="url(#healthGrad)" 
            stroke-width="2"
            opacity="0.7"
            filter="url(#healthGlow)">
    <animate attributeName="stroke-dasharray" values="0,100;100,0" dur="2s" repeatCount="indefinite"/>
  </polyline>
  
  <!-- Neural Nodes -->
  <circle cx="35" cy="35" r="3" fill="#00BCD4" filter="url(#healthGlow)">
    <animate attributeName="opacity" values="0.5;1;0.5" dur="2s" repeatCount="indefinite"/>
  </circle>
  <circle cx="50" cy="45" r="4" fill="#00E5FF" filter="url(#healthGlow)">
    <animate attributeName="opacity" values="0.5;1;0.5" dur="2s" repeatCount="indefinite" begin="0.3s"/>
  </circle>
  <circle cx="65" cy="35" r="3" fill="#00BCD4" filter="url(#healthGlow)">
    <animate attributeName="opacity" values="0.5;1;0.5" dur="2s" repeatCount="indefinite" begin="0.6s"/>
  </circle>
  
  <!-- Plus Symbol -->
  <rect x="48" y="80" width="4" height="15" fill="url(#healthGrad)" rx="2"/>
  <rect x="41" y="87" width="18" height="4" fill="url(#healthGrad)" rx="2"/>
</svg>
