<svg width="100" height="100" viewBox="0 0 100 100" xmlns="http://www.w3.org/2000/svg">
  <defs>
    <linearGradient id="secGrad" x1="0%" y1="0%" x2="100%" y2="100%">
      <stop offset="0%" style="stop-color:#00BCD4;stop-opacity:1" />
      <stop offset="100%" style="stop-color:#28A45E;stop-opacity:1" />
    </linearGradient>
    <filter id="secGlow">
      <feGaussianBlur stdDeviation="2" result="coloredBlur"/>
      <feMerge>
        <feMergeNode in="coloredBlur"/>
        <feMergeNode in="SourceGraphic"/>
      </feMerge>
    </filter>
  </defs>
  
  <!-- Shield -->
  <path d="M 50,15 L 75,25 L 75,50 C 75,65 65,75 50,85 C 35,75 25,65 25,50 L 25,25 Z" 
        fill="rgba(0,188,212,0.1)" 
        stroke="url(#secGrad)" 
        stroke-width="3"
        filter="url(#secGlow)">
    <animate attributeName="opacity" values="0.8;1;0.8" dur="3s" repeatCount="indefinite"/>
  </path>
  
  <!-- Lock Icon -->
  <rect x="42" y="50" width="16" height="20" rx="2" fill="none" stroke="url(#secGrad)" stroke-width="2.5" filter="url(#secGlow)"/>
  <path d="M 44,50 L 44,42 C 44,38 46,35 50,35 C 54,35 56,38 56,42 L 56,50" 
        fill="none" 
        stroke="url(#secGrad)" 
        stroke-width="2.5"
        filter="url(#secGlow)"/>
  <circle cx="50" cy="60" r="2.5" fill="url(#secGrad)"/>
  <rect x="49" y="60" width="2" height="6" fill="url(#secGrad)"/>
  
  <!-- Blockchain Nodes -->
  <circle cx="30" cy="30" r="2" fill="#00BCD4" opacity="0.6" filter="url(#secGlow)">
    <animate attributeName="opacity" values="0.3;0.8;0.3" dur="2s" repeatCount="indefinite"/>
  </circle>
  <circle cx="70" cy="30" r="2" fill="#28A45E" opacity="0.6" filter="url(#secGlow)">
    <animate attributeName="opacity" values="0.3;0.8;0.3" dur="2s" repeatCount="indefinite" begin="0.4s"/>
  </circle>
  <circle cx="30" cy="75" r="2" fill="#00E5FF" opacity="0.6" filter="url(#secGlow)">
    <animate attributeName="opacity" values="0.3;0.8;0.3" dur="2s" repeatCount="indefinite" begin="0.8s"/>
  </circle>
  <circle cx="70" cy="75" r="2" fill="#00BCD4" opacity="0.6" filter="url(#secGlow)">
    <animate attributeName="opacity" values="0.3;0.8;0.3" dur="2s" repeatCount="indefinite" begin="1.2s"/>
  </circle>
  
  <!-- Connection Lines -->
  <line x1="30" y1="30" x2="50" y2="50" stroke="#00BCD4" stroke-width="0.5" opacity="0.3"/>
  <line x1="70" y1="30" x2="50" y2="50" stroke="#28A45E" stroke-width="0.5" opacity="0.3"/>
  <line x1="30" y1="75" x2="50" y2="50" stroke="#00E5FF" stroke-width="0.5" opacity="0.3"/>
  <line x1="70" y1="75" x2="50" y2="50" stroke="#00BCD4" stroke-width="0.5" opacity="0.3"/>
</svg>
